<?xml version="1.0" standalone="no"?>
<!DOCTYPE svg PUBLIC "-//W3C//DTD SVG 20010904//EN"
 "http://www.w3.org/TR/2001/REC-SVG-20010904/DTD/svg10.dtd">
<svg version="1.0" xmlns="http://www.w3.org/2000/svg"
 width="260.000000pt" height="260.000000pt" viewBox="0 0 260.000000 260.000000"
 preserveAspectRatio="xMidYMid meet">
<metadata>
Created by potrace 1.14, written by Peter Selinger 2001-2017
</metadata>
<g transform="translate(0.000000,260.000000) scale(0.100000,-0.100000)"
fill="#000000" stroke="none">
<path d="M1239 2243 c-60 -128 -99 -225 -99 -245 0 -23 102 -223 135 -264 18
-22 25 -25 41 -16 24 12 116 204 133 276 12 47 11 50 -33 140 -55 114 -100
176 -126 176 -14 0 -28 -18 -51 -67z m155 -121 l38 -81 -27 -38 -27 -38 26 30
c14 17 26 27 26 24 0 -29 -112 -279 -125 -279 -15 0 -140 235 -138 260 2 17
80 206 109 262 l16 30 32 -44 c17 -25 49 -82 70 -126z"/>
<path d="M1291 2204 c0 -11 3 -14 6 -6 3 7 2 16 -1 19 -3 4 -6 -2 -5 -13z"/>
<path d="M1245 2089 c-4 -6 -5 -12 -2 -15 2 -3 7 2 10 11 7 17 1 20 -8 4z"/>
<path d="M1220 1956 c0 -8 4 -17 9 -20 5 -4 7 3 4 14 -6 23 -13 26 -13 6z"/>
<path d="M740 2063 c-47 -17 -100 -103 -86 -139 4 -11 -14 -24 -72 -50 -42
-19 -89 -41 -103 -49 -20 -11 -34 -12 -67 -3 -42 11 -72 1 -72 -25 0 -5 41
-51 90 -101 50 -51 90 -95 90 -98 0 -13 -40 -15 -57 -2 -26 20 -33 17 -33 -11
0 -22 -10 -30 -67 -55 -149 -65 -147 -62 -100 -176 21 -49 37 -92 37 -95 0 -4
-12 -10 -27 -14 -54 -13 -248 -88 -262 -101 -7 -7 -11 -20 -8 -28 7 -17 142
-83 189 -93 56 -11 25 14 -62 51 -50 21 -92 42 -95 46 -3 4 37 25 88 45 50 20
99 43 107 50 20 17 154 30 144 14 -4 -8 -3 -9 5 -5 6 4 9 12 6 17 -13 20 77
-1 185 -44 140 -56 176 -66 167 -46 -3 8 -46 108 -96 223 -50 115 -89 211 -87
213 2 2 15 1 28 -2 19 -5 32 -23 56 -80 18 -41 32 -82 32 -92 0 -10 10 -34 22
-53 12 -19 41 -78 64 -130 l41 -95 149 -17 c173 -21 200 -19 124 6 -77 26
-145 61 -217 112 -59 42 -141 129 -131 139 4 5 71 10 158 14 32 2 34 3 17 16
-18 13 -18 16 13 59 17 25 37 46 45 46 29 0 15 52 -56 211 -40 88 -69 162 -66
166 9 9 81 -51 203 -168 135 -130 197 -169 272 -169 79 0 137 35 271 164 127
122 199 182 208 173 3 -4 -26 -79 -66 -167 -74 -166 -83 -204 -53 -212 9 -3
32 -25 49 -50 32 -45 32 -46 11 -51 -36 -10 -18 -15 77 -22 49 -3 91 -8 93
-10 9 -8 -50 -76 -100 -115 -71 -57 -168 -109 -251 -136 -86 -28 -70 -29 118
-13 72 6 135 17 142 23 6 6 23 40 38 76 15 36 45 93 67 127 22 35 38 69 35 77
-4 9 8 49 26 91 24 57 37 77 55 82 12 3 25 3 28 1 10 -10 -177 -423 -199 -440
-38 -30 4 -22 101 18 136 57 216 82 248 78 16 -2 58 -6 94 -9 54 -4 60 -3 38
6 -16 6 -28 14 -28 18 0 4 16 44 36 90 19 45 34 92 32 104 -2 17 -23 31 -95
62 -74 32 -92 44 -93 61 0 31 -11 36 -37 19 -17 -12 -28 -13 -43 -5 -11 6 -20
13 -20 16 0 3 38 45 85 94 47 49 85 93 85 98 0 23 -29 33 -64 23 -31 -8 -43
-6 -79 13 -23 13 -68 34 -100 47 -46 18 -56 26 -51 41 8 28 -13 81 -45 112
-48 46 -124 47 -178 2 l-29 -24 -54 24 c-75 32 -107 31 -126 -3 -9 -16 -46
-98 -82 -183 l-67 -155 -80 0 -79 0 -76 175 c-90 207 -93 209 -188 167 -53
-23 -62 -24 -73 -11 -30 36 -102 54 -149 37z m88 -34 c40 -14 62 -49 62 -99 0
-43 -21 -53 -29 -14 -8 46 -47 58 -81 24 -27 -27 -25 -47 8 -64 l27 -15 -32
-1 c-45 0 -62 8 -78 41 -23 43 -18 68 19 105 36 36 55 40 104 23z m219 3 c17
-11 155 -330 148 -342 -3 -6 -14 -10 -23 -10 -13 0 -32 34 -71 128 -30 70 -55
128 -57 130 -1 2 -20 -6 -43 -17 -54 -28 -58 -27 -70 17 -16 55 -15 58 37 80
54 23 62 25 79 14z m600 -14 c67 -27 69 -42 18 -116 -1 -1 -24 7 -50 18 -26
11 -49 19 -49 18 -1 -2 -26 -60 -56 -130 -30 -71 -59 -128 -65 -128 -39 1 -35
18 34 180 39 90 76 167 83 172 19 11 27 10 85 -14z m250 -13 c32 -32 35 -40
30 -73 -8 -46 -38 -72 -86 -72 l-36 1 28 15 c32 17 34 37 7 64 -34 34 -73 22
-81 -24 -7 -36 -29 -30 -29 8 0 49 18 82 54 100 48 24 74 20 113 -19z m-1057
-70 c10 -13 9 -15 -9 -15 -12 0 -24 -7 -27 -15 -9 -21 -24 -19 -24 5 0 10 8
24 18 29 23 14 27 13 42 -4z m981 5 c10 -6 19 -20 19 -30 0 -23 -15 -27 -24
-5 -3 8 -15 15 -27 15 -18 0 -19 2 -9 15 15 18 16 18 41 5z m-888 -50 c3 -11
1 -20 -4 -20 -5 0 -9 9 -9 20 0 11 2 20 4 20 2 0 6 -9 9 -20z m765 -2 c-2 -12
-8 -23 -14 -25 -7 -2 -10 6 -7 22 6 30 26 34 21 3z m-1001 -38 c18 -16 40 -30
48 -30 7 0 17 -5 21 -11 5 -9 -6 -10 -39 -5 -62 9 -99 -1 -92 -25 5 -14 1 -19
-14 -19 -11 0 -23 5 -26 10 -3 6 -2 10 4 10 6 0 8 6 5 13 -3 10 -21 13 -61 11
-31 -2 -52 1 -47 5 10 10 144 69 158 70 4 1 24 -12 43 -29z m1345 -2 c43 -18
78 -36 78 -40 0 -4 -25 -6 -56 -3 -51 3 -56 2 -51 -15 3 -11 -1 -21 -10 -24
-26 -10 -34 -6 -28 13 8 26 -21 34 -88 27 l-52 -6 40 19 c22 10 49 28 59 40
11 11 22 21 25 21 3 0 41 -15 83 -32z m-1227 -39 c12 -19 -5 -23 -22 -6 -16
16 -16 17 -1 17 9 0 20 -5 23 -11z m1010 1 c-3 -5 -11 -10 -16 -10 -6 0 -7 5
-4 10 3 6 11 10 16 10 6 0 7 -4 4 -10z m-1344 -35 c88 -23 96 -28 156 -87 60
-60 62 -63 41 -71 -13 -5 -47 -7 -76 -4 -51 4 -57 7 -128 78 -68 67 -103 109
-90 109 2 0 46 -11 97 -25z m254 0 c34 -33 31 -45 -8 -45 -37 0 -101 53 -75
63 30 12 60 6 83 -18z m1229 17 c3 -5 -8 -21 -23 -36 -24 -23 -35 -27 -60 -21
-38 8 -39 17 -5 44 27 21 78 28 88 13z m247 -9 c-5 -10 -43 -51 -85 -92 -71
-71 -77 -74 -128 -78 -29 -3 -63 -1 -76 4 -21 8 -19 12 41 72 61 59 69 64 153
86 111 29 107 29 95 8z m-1727 -218 c20 -18 26 -34 26 -65 0 -46 -7 -48 -44
-19 -21 17 -26 29 -26 65 0 51 7 54 44 19z m1696 -13 c0 -29 -7 -45 -30 -67
-34 -33 -42 -30 -43 19 -1 25 6 43 23 61 34 36 50 32 50 -13z m-1631 -23 c24
-58 25 -69 11 -69 -5 0 -10 12 -11 28 0 15 -3 21 -6 15 -9 -24 -23 -13 -23 16
0 17 -5 33 -10 36 -11 7 -4 25 9 25 5 0 18 -23 30 -51z m1561 49 c0 -2 -6 -23
-14 -48 -12 -41 -14 -43 -25 -23 -13 26 3 73 26 73 7 0 13 -1 13 -2z m254
-125 c8 -19 -69 -188 -88 -191 -22 -5 -20 8 10 79 14 34 24 62 22 63 -2 2 -18
8 -36 16 -21 8 -31 18 -28 26 8 22 -4 16 -26 -11 -18 -24 -68 -36 -68 -17 0
13 32 39 55 46 11 3 2 3 -20 0 l-40 -6 23 24 c12 13 22 31 22 40 0 13 16 9 85
-20 46 -20 87 -42 89 -49z m-1934 58 c0 -10 10 -26 23 -34 l22 -16 -24 0 -24
-1 23 -25 23 -25 -31 0 c-21 0 -37 8 -51 26 -15 19 -21 22 -21 10 0 -9 -15
-22 -35 -30 l-35 -15 30 -65 c16 -36 27 -66 25 -66 -2 0 -10 -2 -17 -5 -17 -7
-92 152 -86 181 2 11 31 30 78 51 87 38 100 40 100 14z m1630 -33 c0 -23 -3
-29 -11 -21 -6 6 -8 20 -4 32 9 30 15 26 15 -11z"/>
<path d="M972 1980 c-35 -33 -33 -37 20 -38 29 -1 38 3 43 19 6 19 -9 49 -25
49 -4 0 -21 -13 -38 -30z"/>
<path d="M1579 1994 c-20 -24 1 -49 42 -50 49 -1 52 4 22 37 -32 33 -45 36
-64 13z"/>
<path d="M454 1738 c11 -7 28 -21 38 -30 10 -10 18 -15 18 -12 0 4 8 0 18 -7
16 -13 16 -12 3 4 -8 10 -33 27 -55 38 -23 10 -32 14 -22 7z"/>
<path d="M634 1636 c11 -9 24 -16 30 -16 12 0 7 5 -24 19 -24 11 -24 11 -6 -3z"/>
<path d="M2100 1715 c-6 -8 -10 -20 -7 -27 4 -8 6 -7 6 4 1 9 9 22 19 27 9 6
12 11 6 11 -6 0 -17 -7 -24 -15z"/>
<path d="M1950 1635 c-17 -10 -20 -14 -9 -15 9 0 22 7 29 15 15 18 12 18 -20
0z"/>
<path d="M2270 1460 c1 -14 29 -40 43 -40 22 0 32 19 18 33 -12 12 -61 18 -61
7z"/>
<path d="M292 1462 c-17 -5 -15 -39 2 -45 8 -3 24 5 35 17 l22 23 -23 5 c-13
2 -29 3 -36 0z"/>
<path d="M1177 1523 c-16 -15 -5 -57 22 -84 33 -32 52 -36 71 -14 31 38 -59
133 -93 98z"/>
<path d="M1393 1524 c-7 -3 -22 -21 -33 -39 -17 -27 -19 -38 -10 -55 15 -28
36 -25 71 10 48 48 28 107 -28 84z"/>
<path d="M978 1434 c-4 -3 -3 -18 2 -33 10 -37 -8 -61 -43 -54 -58 11 -75 -40
-28 -87 52 -53 131 -54 131 -2 0 50 36 62 68 23 11 -14 13 -14 23 2 5 9 19 17
30 17 11 0 31 11 44 25 31 31 33 56 3 28 -13 -11 -34 -24 -46 -28 -59 -18
-145 29 -157 85 -6 29 -15 37 -27 24z m-23 -104 c19 0 75 -55 75 -74 0 -12
-10 -16 -35 -16 -61 0 -120 54 -94 86 7 8 19 12 26 9 8 -3 21 -5 28 -5z m65 0
c8 -5 12 -12 9 -15 -8 -8 -39 5 -39 16 0 11 11 11 30 -1z"/>
<path d="M1620 1426 c0 -34 -25 -67 -67 -87 -53 -26 -104 -21 -139 12 -14 13
-24 17 -24 10 0 -19 47 -61 69 -61 11 0 25 -8 30 -17 10 -16 12 -16 23 -2 32
39 68 27 68 -23 0 -50 71 -51 129 -2 50 42 34 103 -24 92 -32 -7 -47 12 -43
53 2 19 -2 34 -9 36 -7 3 -13 -2 -13 -11z m10 -95 c0 -11 -31 -24 -39 -16 -3
3 1 10 9 15 19 12 30 12 30 1z m89 -5 c27 -32 -30 -86 -91 -86 -28 0 -38 4
-38 16 0 21 55 72 83 77 12 2 25 5 28 6 4 0 12 -5 18 -13z"/>
<path d="M1246 1228 c30 -54 76 -63 114 -23 13 14 20 28 16 32 -3 4 -13 -3
-22 -15 -20 -29 -69 -30 -86 -2 -14 21 -34 28 -22 8z"/>
<path d="M2385 1211 c11 -10 57 -33 102 -51 46 -18 81 -36 78 -40 -3 -4 -39
-23 -81 -41 -55 -24 -71 -35 -57 -40 19 -6 137 42 163 67 25 24 2 43 -104 85
-112 44 -129 47 -101 20z"/>
<path d="M260 1169 c0 -58 12 -139 20 -134 4 3 88 7 186 9 99 3 198 8 222 12
36 6 42 4 42 -11 0 -15 7 -16 58 -11 151 15 212 18 212 9 0 -5 24 -6 58 -2 31
4 90 8 130 8 71 1 75 0 108 -33 31 -31 34 -40 35 -92 l1 -59 32 95 33 95 -191
7 c-228 8 -442 34 -706 88 -107 22 -205 42 -217 46 -21 6 -23 3 -23 -27z
m1102 -190 c-17 -51 -17 -51 -23 -20 -4 17 -12 37 -18 45 -13 16 -2 24 36 25
21 1 21 1 5 -50z"/>
<path d="M2275 1179 c-203 -54 -510 -104 -729 -117 l-118 -7 50 -62 50 -63 47
56 c26 30 52 53 58 51 6 -2 17 -22 25 -45 7 -23 18 -40 23 -37 5 3 18 1 28 -5
18 -9 19 -14 9 -36 l-12 -25 -12 28 c-16 36 -16 18 0 -26 l12 -34 18 46 c19
51 88 121 141 143 85 35 181 6 217 -66 l18 -35 0 47 c0 26 3 49 8 51 4 3 43
-26 87 -63 53 -45 82 -64 87 -57 4 7 8 40 8 74 l0 63 30 -6 30 -6 0 76 c0 42
-1 76 -2 75 -2 0 -34 -9 -73 -20z m-740 -159 c26 -6 44 -5 52 2 27 22 11 0
-26 -36 l-38 -37 -32 40 c-36 46 -32 49 44 31z"/>
<path d="M128 1103 c7 -3 16 -2 19 1 4 3 -2 6 -13 5 -11 0 -14 -3 -6 -6z"/>
<path d="M992 995 c0 -16 2 -22 5 -12 2 9 2 23 0 30 -3 6 -5 -1 -5 -18z"/>
<path d="M672 931 c-8 -4 -12 -18 -10 -31 3 -21 4 -21 26 9 22 30 14 41 -16
22z"/>
<path d="M977 903 c-4 -23 -13 -46 -20 -50 -8 -4 -16 -18 -19 -30 -5 -21 -3
-22 20 -17 15 4 28 8 30 9 2 2 2 31 0 66 -3 63 -3 63 -11 22z"/>
<path d="M1137 924 c-4 -4 -7 -15 -7 -25 0 -15 4 -16 30 -6 17 6 29 16 27 22
-4 12 -40 19 -50 9z"/>
<path d="M1895 921 c-11 -5 -28 -18 -38 -29 -22 -24 -34 -96 -18 -106 6 -4 11
0 11 9 0 29 55 75 89 75 36 0 39 12 11 40 -22 22 -26 23 -55 11z"/>
<path d="M340 910 c0 -12 44 -12 80 0 20 6 14 8 -27 9 -29 1 -53 -3 -53 -9z"/>
<path d="M480 905 c-6 -8 -10 -22 -8 -32 3 -16 5 -16 26 5 12 12 22 27 22 32
0 15 -26 12 -40 -5z"/>
<path d="M860 910 c0 -12 34 -12 70 0 20 7 16 8 -22 9 -27 1 -48 -3 -48 -9z"/>
<path d="M692 888 c-1 -10 -9 -18 -17 -18 -12 0 -15 -18 -15 -100 0 -64 -5
-113 -14 -135 -15 -35 -14 -35 -124 -50 l-43 -5 7 136 7 137 -31 -5 c-27 -4
-32 -1 -35 21 -3 20 -4 18 -6 -10 0 -19 -7 -41 -13 -48 -11 -11 -6 -12 25 -7
l37 7 0 -66 c0 -50 -5 -76 -22 -105 -21 -36 -27 -40 -63 -40 -93 0 -175 -13
-175 -27 0 -7 -12 -49 -27 -93 -15 -44 -24 -83 -20 -87 4 -3 87 19 185 50 230
73 380 112 511 133 144 22 141 20 140 102 l-2 67 -7 -63 c-4 -35 -11 -67 -16
-72 -5 -5 -69 -12 -141 -16 l-132 -7 -4 159 c-1 87 -4 151 -5 142z"/>
<path d="M1263 823 c-17 -18 -27 -35 -22 -39 5 -3 14 -2 19 1 11 7 44 66 38
69 -2 1 -17 -13 -35 -31z"/>
<path d="M1315 838 c-4 -13 -16 -35 -26 -49 -15 -21 -16 -28 -6 -32 9 -3 19
12 30 46 9 28 15 53 13 55 -2 2 -7 -7 -11 -20z"/>
<path d="M1889 831 c-51 -52 -28 -95 29 -55 19 13 52 63 52 79 0 17 -56 1 -81
-24z"/>
<path d="M340 805 c0 -19 11 -19 36 0 18 14 18 14 -8 15 -18 0 -28 -5 -28 -15z"/>
<path d="M860 804 c0 -11 6 -14 23 -9 38 12 43 25 9 25 -22 0 -32 -5 -32 -16z"/>
<path d="M1556 727 c-18 -32 -24 -52 -18 -62 13 -24 66 62 55 89 -8 17 -12 14
-37 -27z"/>
<path d="M1416 694 c-23 -73 -15 -80 11 -9 12 30 18 57 14 60 -4 2 -15 -21
-25 -51z"/>
<path d="M2270 737 c0 -13 15 -23 88 -53 57 -25 35 4 -28 36 -42 21 -60 26
-60 17z"/>
<path d="M1437 666 c-18 -51 -15 -60 6 -19 l14 26 17 -25 c10 -15 24 -29 32
-32 13 -5 12 -1 -2 22 -9 16 -24 39 -34 52 l-17 23 -16 -47z"/>
<path d="M1692 672 c-39 -34 -51 -59 -36 -75 3 -3 27 10 54 29 39 28 46 38 42
59 -2 14 -7 25 -11 25 -3 0 -25 -17 -49 -38z"/>
<path d="M1571 659 c-13 -22 -21 -42 -20 -43 2 -2 23 -6 45 -9 l41 -5 -15 49
c-9 27 -19 49 -22 49 -4 0 -17 -18 -29 -41z m39 -25 c0 -8 -9 -14 -20 -14 -18
0 -19 3 -10 20 12 22 30 18 30 -6z"/>
<path d="M2002 680 c-32 -27 -118 -43 -162 -30 -43 12 -40 13 -40 -5 0 -43
132 -60 200 -25 33 17 40 26 40 50 0 35 -6 36 -38 10z"/>
<path d="M2285 645 l6 -55 -50 -2 c-28 -1 -63 -2 -77 -2 -21 -1 -31 8 -48 40
l-22 41 -17 -23 c-51 -68 -208 -86 -279 -32 l-35 27 -38 -27 -38 -27 54 -7
c64 -8 203 -45 469 -123 241 -71 239 -71 245 -54 3 8 -8 54 -25 104 -16 49
-30 99 -30 111 0 25 -4 29 -74 61 l-48 23 7 -55z"/>
<path d="M1272 669 c-7 -12 -11 -23 -8 -26 8 -9 36 17 36 33 0 20 -13 17 -28
-7z"/>
<path d="M288 663 c-53 -4 -58 -6 -58 -28 0 -22 2 -23 37 -13 21 5 62 8 93 6
50 -4 58 -1 74 19 l17 23 -53 -2 c-29 -1 -79 -3 -110 -5z"/>
<path d="M610 663 c-58 -8 -70 -14 -70 -34 0 -17 4 -20 23 -15 12 3 30 6 39 6
10 0 22 9 28 21 14 25 13 26 -20 22z"/>
<path d="M813 663 c-29 -2 -53 -8 -53 -13 0 -4 -3 -15 -6 -24 -5 -14 5 -15 87
-10 52 4 96 8 98 10 10 9 -34 44 -53 42 -12 -1 -45 -3 -73 -5z"/>
<path d="M1020 637 c0 -22 5 -25 45 -29 37 -3 46 0 51 15 8 24 7 24 -48 32
-46 7 -48 6 -48 -18z"/>
<path d="M2143 653 c-21 -4 -22 -6 -8 -27 14 -21 19 -22 55 -12 28 7 40 16 40
28 0 18 -30 22 -87 11z"/>
<path d="M1130 635 c0 -9 9 -15 21 -15 18 0 19 2 9 15 -7 8 -16 15 -21 15 -5
0 -9 -7 -9 -15z"/>
<path d="M1295 630 c-3 -5 1 -10 10 -10 9 0 13 5 10 10 -3 6 -8 10 -10 10 -2
0 -7 -4 -10 -10z"/>
<path d="M1124 588 c-3 -4 -22 -5 -42 -2 -82 13 -447 -69 -761 -171 -158 -52
-172 -58 -158 -72 18 -18 4 -21 257 56 675 206 1121 199 1825 -25 140 -45 231
-60 237 -41 8 24 -768 247 -819 236 -4 -1 -19 1 -33 4 -58 16 -215 25 -222 14
-5 -9 -10 -9 -20 1 -15 15 -120 16 -136 0 -8 -8 -15 -8 -26 1 -15 13 -94 12
-102 -1z"/>
</g>
</svg>
